<svg id="Capa_1" data-name="Capa 1" xmlns="http://www.w3.org/2000/svg" viewBox="0 0 66.93 57.79"><defs><style>.cls-1{fill:#829497;}</style></defs><title>logo-vimeo</title><g id="_0tMSPm" data-name="0tMSPm"><path class="cls-1" d="M68,13.69c0-.48,0-1,0-1.46a10.43,10.43,0,0,0-7.57-10A16.09,16.09,0,0,0,47.2,4.2c-5,3-7.71,7.6-9.34,13-.49,1.6.34,2.39,2,2a12.63,12.63,0,0,1,4-.52c2.33.16,3.31,1.36,2.81,3.65a28.09,28.09,0,0,1-8.17,14.24c-.63.62-1.05.45-1.46-.14a9.6,9.6,0,0,1-.86-1.49,26.84,26.84,0,0,1-1.64-5C33.2,24.51,32.51,19,31.62,13.52a17.11,17.11,0,0,0-3.16-8,7.13,7.13,0,0,0-7-2.91,14.88,14.88,0,0,0-6.07,2.56A84.52,84.52,0,0,0,1.56,17a1.32,1.32,0,0,0,0,2c.91,1.1,1.83,2.2,2.77,3.28s1.49,1,2.42.05a9,9,0,0,1,2.67-2,1.71,1.71,0,0,1,2.59,1A43,43,0,0,1,13.72,26c2.19,6.61,4.08,13.33,6.6,19.82a42.39,42.39,0,0,0,5.33,10.42C28.06,59.39,30,60,33.81,58.89A27.34,27.34,0,0,0,43,53.81,77.93,77.93,0,0,0,65,25.5,26.88,26.88,0,0,0,68,13.69Z" transform="translate(-1.07 -1.63)"/><path class="cls-1" d="M68,13.69A26.88,26.88,0,0,1,65,25.5,77.93,77.93,0,0,1,43,53.81a27.34,27.34,0,0,1-9.19,5.08c-3.82,1.14-5.75.5-8.16-2.68a42.39,42.39,0,0,1-5.33-10.42C17.8,39.3,15.91,32.58,13.72,26A43,43,0,0,0,12,21.3a1.71,1.71,0,0,0-2.59-1,9,9,0,0,0-2.67,2c-.93.94-1.56.94-2.42-.05S2.43,20.14,1.52,19a1.32,1.32,0,0,1,0-2A84.52,84.52,0,0,1,15.36,5.13a14.88,14.88,0,0,1,6.07-2.56,7.13,7.13,0,0,1,7,2.91,17.11,17.11,0,0,1,3.16,8c.89,5.48,1.58,11,2.95,16.38a26.84,26.84,0,0,0,1.64,5,9.6,9.6,0,0,0,.86,1.49c.41.59.83.76,1.46.14A28.09,28.09,0,0,0,46.7,22.29c.5-2.29-.48-3.49-2.81-3.65a12.63,12.63,0,0,0-4,.52c-1.64.43-2.47-.36-2-2,1.63-5.4,4.39-10,9.34-13A16.09,16.09,0,0,1,60.42,2.28a10.43,10.43,0,0,1,7.57,10C68,12.72,68,13.21,68,13.69Z" transform="translate(-1.07 -1.63)"/></g></svg>