<svg id="Capa_1" data-name="Capa 1" xmlns="http://www.w3.org/2000/svg" viewBox="0 0 57.6 55.07"><defs><style>.cls-1{fill:#829497;}</style></defs><title>Sin título-3</title><g id="dnTRpD.tif"><path class="cls-1" d="M8.49,1.93c.45.09.91.17,1.36.28a6.23,6.23,0,0,1,4.86,6.38A6.19,6.19,0,0,1,9.4,14.64a7.73,7.73,0,0,1-5.92-1.07A6,6,0,0,1,1,9.61a2.26,2.26,0,0,0-.11-.37V7.56a2.77,2.77,0,0,0,.1-.26A6,6,0,0,1,5.18,2.39a20.64,20.64,0,0,1,2.07-.46Z" transform="translate(-0.84 -1.93)"/><path class="cls-1" d="M33.1,57H20.8V19.93H33.07v5l.12,0c.09-.12.2-.23.28-.36A12.2,12.2,0,0,1,44.32,19a14.22,14.22,0,0,1,7.55,2,12.58,12.58,0,0,1,5,6,21.86,21.86,0,0,1,1.57,8.68c0,6.95,0,13.91,0,20.86,0,.13,0,.26,0,.43H46.08v-.71c0-6.6,0-13.2,0-19.79a13,13,0,0,0-.69-4,5.47,5.47,0,0,0-6-3.76,6.8,6.8,0,0,0-6,5.08,11.69,11.69,0,0,0-.24,2.84c0,6.52,0,13.05,0,19.57Z" transform="translate(-0.84 -1.93)"/><path class="cls-1" d="M13.88,19.93V57H1.59V19.93Z" transform="translate(-0.84 -1.93)"/></g></svg>