<svg id="Capa_1" data-name="Capa 1" xmlns="http://www.w3.org/2000/svg" viewBox="0 0 806.17 639.84"><defs><style>.cls-1{fill:#829497;}</style></defs><title>logo-medium</title><path class="cls-1" d="M630.65,659H391.05c-.68-7.36-.55-13.59,4.79-19.91,27.41-32.46,54.27-65.39,81.28-98.2a40.49,40.49,0,0,0,9.33-31.65,53.86,53.86,0,0,1-.29-6.48q0-173.74.18-347.48c0-12.79-3.44-22.84-11.88-32.59-23-26.58-44.84-54.16-67.71-80.86-5.51-6.43-6.79-12.76-5.44-20.76,1.6-.07,3.22-.22,4.83-.22q111.75,0,223.49-.12c4.09,0,5.74,1.47,7.31,4.9q87.57,192.44,175.32,384.78c.82,1.79,1.72,3.53,3,6.15,3-7.5,5.78-14.17,8.45-20.85Q897.9,210.62,972,25.51c1.2-3,2.36-4.78,6.28-4.77q107,.24,214,.12c1.31,0,2.62.12,4.23.2.9,7.47.8,13.62-5.77,19.57-20.24,18.35-39.67,37.6-59.43,56.48a19.29,19.29,0,0,0-6.19,15.23c.1,3,.19,6,.19,9q0,219.24,0,438.48c0,3.16-.11,6.33-.2,9.49a19.55,19.55,0,0,0,6.24,15.21c20.39,19.9,40.68,39.92,61.15,59.74,5.08,4.92,1.77,10.63,3,16.33h-316c-1-7.51-.75-13.68,5.74-19.64,19.74-18.15,38.61-37.26,58-55.8a22.84,22.84,0,0,0,7.56-17.65q-.16-181.5-.07-363a3.15,3.15,0,0,0-.87-2.27c-.67,1.55-1.38,3.09-2,4.67Q859.89,430.29,772,653.72c-1.66,4.24-3.53,6.12-8.2,5.63a72.26,72.26,0,0,0-13.48,0c-3.94.33-5.81-1.12-7.44-4.71q-28.6-63-57.52-125.76Q611.65,368,537.89,207.11a10.12,10.12,0,0,0-3.35-4.37v6q0,147,.06,294c0,7.43-.08,15.06,1.52,22.23A39,39,0,0,0,544,540.26c27,33.2,54.21,66.3,81.85,99C631.08,645.44,631.15,651.58,630.65,659Z" transform="translate(-390.76 -20.74)"/></svg>