<svg id="Capa_1" data-name="Capa 1" xmlns="http://www.w3.org/2000/svg" viewBox="0 0 60 60"><defs><style>.cls-1{fill:#829497;}</style></defs><title>Mesa de trabajo 1</title><g id="ikU12L.tif"><path class="cls-1" d="M40.62,59.05H19.93c-.83-.07-1.66-.16-2.5-.2-9.15-.46-15-5.91-16.09-15-.15-1.25-.23-2.51-.34-3.76V19.44c.07-.78.15-1.54.2-2.32C1.46,13,2.49,9.18,5.32,6A16,16,0,0,1,17.4.76C26,.61,34.56.63,43.13.76a16.22,16.22,0,0,1,11,4.14,16,16,0,0,1,5.17,12c.15,8.58.22,17.16,0,25.73-.25,9.14-5.86,15-14.91,16.06C43.13,58.86,41.87,58.94,40.62,59.05ZM30.34,53.58H42.72a11.78,11.78,0,0,0,1.56-.16c5-.62,8.3-3.46,9.35-8.18a19.13,19.13,0,0,0,.45-3.77c.1-5.78.18-11.57.17-17.35a80.58,80.58,0,0,0-.39-8.37c-.55-5.21-3.62-8.57-8.77-9.39a58,58,0,0,0-8.75-.51c-6.1,0-12.22,0-18.32.18C10.7,6.25,6.83,10.2,6.48,17.52c-.1,2.08-.19,4.16-.18,6.24,0,6.1,0,12.22.21,18.32C6.76,49.35,10.7,53.27,18,53.55,22.09,53.71,26.22,53.58,30.34,53.58Z"/><path class="cls-1" d="M30.28,44.81a15,15,0,1,1,15-15A15,15,0,0,1,30.28,44.81Zm9.75-15a9.76,9.76,0,1,0-9.73,9.76A9.8,9.8,0,0,0,40,29.77Z"/><path class="cls-1" d="M49.41,14.2a3.52,3.52,0,1,1-3.49-3.56A3.5,3.5,0,0,1,49.41,14.2Z"/></g></svg>