<svg id="Capa_1" data-name="Capa 1" xmlns="http://www.w3.org/2000/svg" viewBox="0 0 958.28 113.84"><defs><style>.cls-1{fill:#fefefe;}</style></defs><title>logo-blanco</title><path class="cls-1" d="M1437.09,549.44c-6.1,2.49-12.19,5.44-18.57,7.47-10,3.18-19.86,2.51-27.65-5.25a59.64,59.64,0,0,1-15.77-28.28c-.57-2.33.18-5,.36-8,4.48-.93,8.46-1.91,12.5-2.56,5.13-.83,10.36-1.08,15.44-2.14,8.8-1.84,16.91-5.26,22.95-12.32,2.93-3.43,3.23-8.66.88-11.58-11-13.6-31.88-16-46.59-5.93-8.39,5.77-13.78,13.74-17.58,21.51-6.42.8-11.51,1.36-16.58,2.08-5.69.8-10.26-.89-13.54-5.71-1.36-2-2.67-4-4-6.05l.18.05c-3.33-9.92-1.68-21.7-11.11-30.63-2.07,2.54-4.09,4.19-5,6.31-4,8.9-4,18.06-1.44,27.43.72,2.67.11,5.69.11,9.4-3.94-.86-6.89-1.57-9.87-2.14-2-.38-4.21-1.17-6-.69a7.5,7.5,0,0,0-4.13,3.7c-.39.77.9,3.41,1.91,3.74,6.83,2.22,13.79,4.05,22.24,6.44,2,5.68,4.51,12.4,6.93,19.14,3.5,9.77,1.34,13.27-8.94,14.48a40.61,40.61,0,0,1-4.67.36c-17.07,0-25.8-6.21-31.35-22.3-1.86-5.4-3.25-11-5.21-16.33-1-2.86-2.59-5.78-7.62-5-3.46,5.88-2.6,12.2-.3,18.72a112.41,112.41,0,0,1,4.59,14.87c1.74,8.55-1.76,15.51-9.14,19.63-9.44,5.29-24.42,2.79-31.42-5.7-7.42-9-12.46-19-13-31.07-.52-12.34,4.94-21.15,16.77-24.54,4.35-1.25,9.17-.81,13.77-1.18,2.37-.19,4.73-.44,7.64-.72-1.81-5.95-6.12-6.92-10-7.6a31.81,31.81,0,0,0-19.74,2.56c-10.12,4.86-12.12,7-22.22,24.39-5.15-10.3-7.64-22.39-19.28-29.63-7.73,5.22-15,10.1-22.25,15-7.67,5.21-10.45,15.25-19.23,20.34-6.6-10-12.54-19.66-19.09-28.84a146.88,146.88,0,0,0-13.2-15.26c-4-4.19-9.41-4.9-14.48-3.22-5.79,1.93-9.24,6.55-9.64,12.92-.23,3.63.2,7.36-.48,10.88-2.56,13.38.21,25.54,6.58,37.46,3.38,6.31,5,13.55,7.46,20.37l-.36-.42c2.39,2.54,2.66,7.26,7.09,7.62,2.36.19,4.8-.63,8-1.11-.65-3.48-.69-6.1-1.64-8.34-4.27-10-8.43-20.17-13.36-29.9-4.11-8.09-4.66-17-7-25.44-.89-3.27.16-7.23.93-10.74s5.9-5.2,9-2.94a40.92,40.92,0,0,1,6.74,6.35c7.88,9.06,13.38,19.6,18.53,30.34,5.42,11.3,9.79,22.94,12.16,35.32.85,4.46,4.06,6.44,7.69,5.52s5.19-3.68,4.74-8.45c-.48-5.13-.85-10.29-1.13-15.44-1-18.35,10.73-28.18,24.7-36.27,2.41-1.4,5.74-1.21,8.11-1.66,1.39,1.6,2.33,2.26,2.68,3.15,7.09,18,12.57,36.34,11.73,56-.23,5.27.33,10.38,3.63,14.84,1.52,2.07,5.48,2,6.39-.52,1-2.84,2.12-5.94,2-8.87-.27-5.16-1.62-10.26-2.19-15.42-.18-1.63-1.12-4.36,2-4.48,4.46,5.87,8.54,11.72,13.11,17.15a29.59,29.59,0,0,0,20.36,10.33c7.28.69,15.05.42,21-4.14s10.78-10.52,16.54-16.32c14.8,10.19,30.8,10.06,47.63,3.11,3.44,4.43,6.38,8.64,9.79,12.42a32,32,0,0,0,7.14,5.48c2.29,1.41,4.81,1.91,7.08-.42,1.89-1.95,1.18-4.71-2.14-7.84-.38-.36-.81-.66-1.22-1-10.53-8.19-14.53-18.5-10.35-31.55a19.36,19.36,0,0,0,1-6.08c-.07-3.54-2.18-7.8,1.22-10.25,2.73-2,6.69-2.16,10-3.29,2.82-.94,5.56-2.09,9.26-3.51,1.5,4.73,3.06,8.52,3.87,12.47,2.35,11.42,7.83,21.46,13.49,31.41,3.47,6.1,8.46,10.84,15.41,12.36,11.89,2.61,23.89,3.1,35.12-2.55,4-2,7.49-5.39,11-8.43C1439.69,553,1439.53,551,1437.09,549.44ZM1377.6,497c1.79-5.26,5.88-8.69,10.34-11.11,10.31-5.58,20.6-6,28.85,1.38a5.19,5.19,0,0,1-.13,8.07,19.65,19.65,0,0,1-6.7,3.56c-8,1.85-16.17,3.28-22.63,4.56-3.29-.22-4.84-.25-6.37-.45C1378.63,502.72,1376.82,499.3,1377.6,497Z" transform="translate(-480.83 -462.07)"/><path class="cls-1" d="M1097.9,555.59c-2.82,8.34-9.18,12.25-17.42,13.1-7.25.74-13.22-2.54-17.63-8.11-3.49-4.42-6.41-9.29-9.57-14-2.25-3.34-4.49-6.7-6.8-10.16-7.59,6.79-14.66,12.74-21.28,19.15-5.92,5.73-13.47,8.45-20.91,9.76-15.08,2.64-29.77-.56-40-17.33-11.68-19.13-11.19-38.59-1.21-57.72,3.19-6.11,9-11.75,15-15.28,9.36-5.52,20.11-8.19,31.19-8.59,6.56-.25,12.33,2.12,17.4,5.89,4.57,3.39,8.68,7.42,13,11.2,1.93,1.71,3.55,4.61,5.72,5.06,11.28,2.35,11.16,10.64,10.82,19.25-.51,12.76,2.7,24.69,8,36.16,2.47,5.34,5.52,10,11.84,11.4,4.43,1,6.61.45,14.8-4.22,2.29,1.48,4.82,3.11,7.39,4.79ZM1032.38,523c1.93-4.14,4.7-8.15,5.61-12.55,1-4.91,2-10.93.13-15.14-6.34-14-24.79-24-40.17-19-5.68,1.84-10,5.25-14.56,8.76-18.35,14.23-21.69,45.55-6.26,62.54a20.9,20.9,0,0,0,10.39,6.25c9.23,1.92,18.45,1.77,27.35-2.77,7.65-3.89,13.37-9.76,19-15.87C1038,530.79,1035.93,526.89,1032.38,523Z" transform="translate(-480.83 -462.07)"/><path class="cls-1" d="M1334.38,520c-1.69,1.64-2.63,2.56-3.58,3.47-.66-1.14-1.8-2.25-1.85-3.42s.91-2.57,1.43-3.86Z" transform="translate(-480.83 -462.07)"/><path class="cls-1" d="M1328.68,492.25c-.25,3-.47,6.09-.77,9.12,0,.35-.53.64-1.5,1.73-3-3.37-4.15-6.75-2.9-11.75l5.61,1.35Z" transform="translate(-480.83 -462.07)"/><path class="cls-1" d="M595.6,552.47c.43,3.86,3.57,8.66-2,10.84-4.53,1.77-8.7-1.45-10.49-5-3.92-7.68-9.93-14.11-11-23.57-1.42-12.3-4.77-24.41-7.71-36.49a55,55,0,0,0-5.2-12.93c-3.62-6.7-8.81-8.77-15.66-5.53-9.9,4.68-19.67,9.9-24.7,20.54-3.77,8-7.12,16.17-11.14,24-4.72,9.21-9.9,18.18-15,27.16-.72,1.25-2.28,2.07-3.55,2.94-2,1.36-6,.1-6.67-2a13.07,13.07,0,0,1-.7-3c-1.44-20.82-1.39-41.59,2.37-62.2.55-3,2-6,7.24-5.56.11,3.33.4,6.77.31,10.21-.23,8.3-.89,16.6-.84,24.9,0,4.55,1.16,9.09,2,14.74,7.77-4.93,10.22-12,12.59-18.6,5.67-15.86,15.84-27.82,29.48-37.31,15.53-10.81,30.74-6,36.92,12,1.35,3.93,2.09,8.06,3.39,12,.6,1.81,1.88,3.39,3.36,6,2.16-6.55,3.64-12,5.72-17.18,5.69-14.22,21.71-25.06,36.69-24.58,17.58.57,34,18.1,27.59,40-.81,2.77-3.16,5.43-5.44,7.39-8.47,7.27-18,12.28-29.52,12.57-5.2.14-10.41.07-15.6.38a4.63,4.63,0,0,0-4,6.75c5.27,11.17,13.74,18.54,26.26,19.44,19.49,1.4,38.37-.48,55.39-11.84A71.72,71.72,0,0,0,696,517.29c3.5-5.41,6.14-11.74,4.39-19.17s1-13.23,9.21-15.52c2.44-.69,4.58-2.45,6.86-3.71a11.64,11.64,0,0,1,12,0q8,4.69,15.65,10.11c5.45,3.87,10.63,8.11,16.38,12.55,2.42-2.28,4.6-3.74,6-5.75,2.6-3.87,4.8-8,7-12.13,4.29-7.88,11.65-11.86,19.55-14.61,7-2.44,14.17-2.74,20.75,2.4,4.06,3.17,8.78,5.5,14.14,8.78l9-4.29c8.54-4.06,17.22-7.63,27-5.33,3.72.88,7,2.41,5.73,7.5-6.44.93-13.29.81-19.21,3.09-6.14,2.36-11.39,7.05-16.52,10.4-.82,2.29-1.73,3.73-1.78,5.19-.29,9.41-3.58,17.1-11.52,22.72-5.82,4.11-6.63,10.31-5.41,16.81,1.48,7.85,7.13,12.71,15.13,13.38,19.13,1.62,36.83-12.94,39.16-32.24.37-3.1.53-6.23,1-9.32s.86-6.92,4.75-7,4.44,3.47,4.41,6.73c0,.53,0,1.05,0,1.57-.43,10.16,3,19.38,6.63,28.65,2.47,6.28,6.24,10.67,12.82,12.47a19,19,0,0,1,2.95,1c3.79,1.78,5.36,4.7,3.9,7.18-1.81,3.06-4.92,4.59-7.91,3.38a30.19,30.19,0,0,1-10.27-6.66c-5-5.17-9.22-11-13.77-16.6-5,0-7.52,3.51-10,6.69A40.28,40.28,0,0,1,848.15,558,91.46,91.46,0,0,0,832,567.34c-14.79,10.79-44.64,9.84-60.35-10.59C764.16,547,759,536.21,758.23,524a22.94,22.94,0,0,0-8.88-17.33c-4.4-3.65-8.59-7.56-13-11.24a44.68,44.68,0,0,0-7.48-5.52c-5.65-3-12.37-.32-13.61,5.82-1,5-.91,10.31-.68,15.46.54,11.93,1.65,23.85,2.11,35.79.2,5.3-1.63,6.34-9.6,7-4.84-7.7-2.4-17.26-6.19-26.5-2.75,1.71-5.78,2.69-7.42,4.76-12.7,16.07-29.93,23.3-49.46,27.06-11.72,2.26-22.75.56-33.87-2.53-5-1.38-10-2.65-15-4-.29-1.12-.59-2.22-.9-3.32-.21.35-.67.89-.59,1A24.91,24.91,0,0,0,595.6,552.47ZM606,514.91c11.78-.2,22.63-2.93,31.37-11.51,8.4-8.23,7.74-17.68-1.8-24.67-1.26-.93-2.41-2-3.73-2.84-7.66-4.81-15.26-5.62-23.48-.8-8.53,5-14.36,11.54-16.72,21.41-3.14,13.11-.25,17.65,12.79,18.4C605,514.93,605.47,514.91,606,514.91Zm163.88,7.33c-2.58,11.25,2.8,18.15,7,25,9.19,15.22,22.08,20.62,39.8,17.39,1.57-.29,2.86-2.18,5.14-4-11.21-8.52-15.66-19.94-18.32-32.19Zm49.15-34c-3-2.88-5.78-5.84-8.86-8.42-5.54-4.63-11.85-4.43-17.29-.56-8.06,5.72-15,12.68-18.13,22.56-1.55,5,.22,9.54,5.24,11.34a96.3,96.3,0,0,0,16.48,4.15c5.11.84,9.13-1.56,11.46-6.21C811.61,503.76,815.1,496.34,819,488.22Z" transform="translate(-480.83 -462.07)"/></svg>