<svg width="48" height="24" viewBox="0 0 48 24" fill="none" xmlns="http://www.w3.org/2000/svg">
<path d="M23.6652 12C26.9423 12 29.5947 9.31607 29.5947 6C29.5947 2.68393 26.9423 0 23.6652 0C20.3881 0 17.7357 2.68393 17.7357 6C17.7357 9.31607 20.3881 12 23.6652 12ZM27.7312 13.7143H27.2917C26.1905 14.25 24.9676 14.5714 23.6652 14.5714C22.3628 14.5714 21.1451 14.25 20.0387 13.7143H19.5992C16.2321 13.7143 13.5003 16.4786 13.5003 19.8857V21.4286C13.5003 22.8482 14.6385 24 16.0415 24H31.2889C32.6919 24 33.8301 22.8482 33.8301 21.4286V19.8857C33.8301 16.4786 31.0983 13.7143 27.7312 13.7143ZM38.9126 12C41.7185 12 43.995 9.69643 43.995 6.85714C43.995 4.01786 41.7185 1.71429 38.9126 1.71429C36.1066 1.71429 33.8301 4.01786 33.8301 6.85714C33.8301 9.69643 36.1066 12 38.9126 12ZM41.4538 13.7143H41.2526C40.5167 13.9714 39.7385 14.1429 38.9126 14.1429C38.0867 14.1429 37.3084 13.9714 36.5725 13.7143H36.3713C35.2913 13.7143 34.296 14.0304 33.4225 14.5393C34.7143 15.9482 35.5243 17.8179 35.5243 19.8857V21.9429C35.5243 22.0607 35.4978 22.1732 35.4925 22.2857H44.8421C46.2451 22.2857 47.3833 21.1339 47.3833 19.7143C47.3833 16.3982 44.7309 13.7143 41.4538 13.7143Z" fill="#364143"/>
<path d="M23.7181 12C20.441 12 17.7886 9.31607 17.7886 6C17.7886 2.68393 20.441 0 23.7181 0C26.9953 0 29.6477 2.68393 29.6477 6C29.6477 9.31607 26.9953 12 23.7181 12ZM19.6522 13.7143H20.0916C21.1928 14.25 22.4158 14.5714 23.7181 14.5714C25.0205 14.5714 26.2382 14.25 27.3447 13.7143H27.7841C31.1512 13.7143 33.8831 16.4786 33.8831 19.8857V21.4286C33.8831 22.8482 32.7448 24 31.3418 24H16.0945C14.6915 24 13.5532 22.8482 13.5532 21.4286V19.8857C13.5532 16.4786 16.285 13.7143 19.6522 13.7143ZM8.47077 12C5.66482 12 3.38831 9.69643 3.38831 6.85714C3.38831 4.01786 5.66482 1.71429 8.47077 1.71429C11.2767 1.71429 13.5532 4.01786 13.5532 6.85714C13.5532 9.69643 11.2767 12 8.47077 12ZM5.92954 13.7143H6.13072C6.86661 13.9714 7.64487 14.1429 8.47077 14.1429C9.29667 14.1429 10.0749 13.9714 10.8108 13.7143H11.012C12.092 13.7143 13.0873 14.0304 13.9609 14.5393C12.6691 15.9482 11.8591 17.8179 11.8591 19.8857V21.9429C11.8591 22.0607 11.8855 22.1732 11.8908 22.2857H2.54123C1.13826 22.2857 0 21.1339 0 19.7143C0 16.3982 2.65241 13.7143 5.92954 13.7143Z" fill="#364143"/>
</svg>
