<svg width="21" height="24" viewBox="0 0 21 24" fill="none" xmlns="http://www.w3.org/2000/svg">
<path d="M10.3125 11.9999C10.3036 12 10.2946 12 10.2857 12C6.96964 12 4.28571 9.31607 4.28571 6C4.28571 2.68393 6.96964 0 10.2857 0C10.2946 0 10.3036 1.99378e-05 10.3125 5.88553e-05C10.3214 1.99378e-05 10.3304 0 10.3393 0C13.6554 0 16.3393 2.68393 16.3393 6C16.3393 9.31607 13.6554 12 10.3393 12C10.3304 12 10.3214 12 10.3125 11.9999Z" fill="#364143"/>
<path d="M14.0089 13.7143H14.4H14.4536C17.8607 13.7143 20.625 16.4786 20.625 19.8857V21.4286C20.625 22.8482 19.4732 24 18.0536 24H18H2.625H2.57143C1.15179 24 0 22.8482 0 21.4286V19.8857C0 16.4786 2.76429 13.7143 6.17143 13.7143H6.225H6.61607H6.66964C7.77637 14.2464 9.00466 14.5671 10.3125 14.5714C11.6203 14.5671 12.8486 14.2464 13.9554 13.7143H14.0089Z" fill="#364143"/>
</svg>
